<svg xmlns="http://www.w3.org/2000/svg" viewBox="0 0 45 45" width="45" height="45" fill="none"><path fill="#434651" fill-rule="evenodd" clip-rule="evenodd" d="M11.5 11c-.83 0-1.5.67-1.5 1.5v19a2.5 2.5 0 0 0 2.5 2.5H33.5c.59 0 1.06-.15 1.43-.4.37-.24.61-.57.77-.88a2.96 2.96 0 0 0 .3-1.18v-.04h-.5.5v-11c0-.83-.67-1.5-1.5-1.5H32v-6.5c0-.83-.67-1.5-1.5-1.5h-19zM32 20V31.55a1.97 1.97 0 0 0 .2.73c.1.19.23.36.42.5.2.12.47.22.88.22.41 0 .69-.1.88-.23.2-.13.33-.3.42-.5a1.96 1.96 0 0 0 .2-.76V20.5a.5.5 0 0 0-.5-.5H32zm-.7 12.72l.16.28H12.5a1.5 1.5 0 0 1-1.5-1.5v-19c0-.28.22-.5.5-.5h19c.28 0 .5.22.5.5v19h.5-.5v.04a2.08 2.08 0 0 0 .04.35c.03.22.1.53.26.83zM15.5 15c-.83 0-1.5.67-1.5 1.5v3c0 .83.67 1.5 1.5 1.5h3c.83 0 1.5-.67 1.5-1.5v-3c0-.83-.67-1.5-1.5-1.5h-3zm-.5 1.5c0-.28.22-.5.5-.5h3c.28 0 .5.22.5.5v3a.5.5 0 0 1-.5.5h-3a.5.5 0 0 1-.5-.5v-3zM28 24H14v-1h14v1zm-6-8h6v-1h-6v1zm6 3h-6v-1h6v1zm-14 8h14v-1H14v1zm7 3h-7v-1h7v1z"></path></svg>