<svg xmlns="http://www.w3.org/2000/svg" width="45" height="45"><path fill="#434651" d="m27 31.5a2.5 2.5 0 0 1-2.5 2.5h-6a2.5 2.5 0 0 1-2.5-2.5v-3.74c-2.41-1.74-4-5.04-4-8.26a9.5 9.5 0 0 1 19 0c0 3.21-1.6 6.52-4 8.26v3.74zM18.5 33h6a1.5 1.5 0 0 0 1.5-1.5v-4.27l.22-.14c2.25-1.51 3.78-4.6 3.78-7.59a8.5 8.5 0 1 0-17 0c0 3 1.53 6.08 3.78 7.58l.22.15v4.27a1.5 1.5 0 0 0 1.5 1.5zm-2-5v-1h10v1zm0 3v-1h10v1zm2.5 2.5h1v1a.5.5 0 0 0 .5.5h2a.5.5 0 0 0 .5-.5v-1h1v1a1.5 1.5 0 0 1-1.5 1.5h-2a1.5 1.5 0 0 1-1.5-1.5v-1zm3-5.5h-1v-8h1zm-3-7v-1h5v1z"></path></svg>