<svg xmlns="http://www.w3.org/2000/svg" width="45" height="45"><path fill="#434651" d="M23.98 13.12c3.67 1.19 5.98 4.85 6.02 9.26v2.31c-.04 1.53.03 2.14.35 2.46l-.7.7c-.61-.6-.7-1.32-.66-3.18L29 24v-1.62c-.04-4.13-2.23-7.46-5.63-8.4a.5.5 0 0 1-.37-.48c0-1.04-.56-1.5-1.5-1.5s-1.5.46-1.5 1.5a.5.5 0 0 1-.37.48c-3.4.93-5.59 4.27-5.63 8.4V24l.01.67c.04 1.86-.05 2.58-.66 3.18l-.7-.7c.32-.32.4-.93.36-2.46L13 24v-1.62c.04-4.41 2.35-8.07 6.02-9.26.15-1.39 1.14-2.12 2.48-2.12s2.33.73 2.48 2.12zM13 28a1 1 0 0 0 0 2h17a1 1 0 0 0 0-2m0-1a1 1 0 0 1 0 4H13a1 1 0 0 1 0-4m6 3.5a1 1 0 0 0 5 0h1a1 1 0 0 1-7 0"></path></svg>